<?xml version="1.0" encoding="utf-8" standalone="no"?>
<!DOCTYPE svg PUBLIC "-//W3C//DTD SVG 1.1//EN"
  "http://www.w3.org/Graphics/SVG/1.1/DTD/svg11.dtd">
<!-- Created with matplotlib (https://matplotlib.org/) -->
<svg height="574.678125pt" version="1.1" viewBox="0 0 600.504688 574.678125" width="600.504688pt" xmlns="http://www.w3.org/2000/svg" xmlns:xlink="http://www.w3.org/1999/xlink">
 <defs>
  <style type="text/css">
*{stroke-linecap:butt;stroke-linejoin:round;}
  </style>
 </defs>
 <g id="figure_1">
  <g id="patch_1">
   <path d="M 0 574.678125 
L 600.504688 574.678125 
L 600.504688 0 
L 0 0 
z
" style="fill:none;"/>
  </g>
  <g id="axes_1">
   <g id="patch_2">
    <path d="M 35.304688 550.8 
L 593.304688 550.8 
L 593.304688 7.2 
L 35.304688 7.2 
z
" style="fill:#ffffff;"/>
   </g>
   <g id="matplotlib.axis_1">
    <g id="xtick_1">
     <g id="line2d_1">
      <defs>
       <path d="M 0 0 
L 0 3.5 
" id="mbe74d76efa" style="stroke:#000000;stroke-width:0.8;"/>
      </defs>
      <g>
       <use style="stroke:#000000;stroke-width:0.8;" x="102.893294" xlink:href="#mbe74d76efa" y="550.8"/>
      </g>
     </g>
     <g id="text_1">
      <!-- −2.5 -->
      <defs>
       <path d="M 10.59375 35.5 
L 73.1875 35.5 
L 73.1875 27.203125 
L 10.59375 27.203125 
z
" id="DejaVuSans-8722"/>
       <path d="M 19.1875 8.296875 
L 53.609375 8.296875 
L 53.609375 0 
L 7.328125 0 
L 7.328125 8.296875 
Q 12.9375 14.109375 22.625 23.890625 
Q 32.328125 33.6875 34.8125 36.53125 
Q 39.546875 41.84375 41.421875 45.53125 
Q 43.3125 49.21875 43.3125 52.78125 
Q 43.3125 58.59375 39.234375 62.25 
Q 35.15625 65.921875 28.609375 65.921875 
Q 23.96875 65.921875 18.8125 64.3125 
Q 13.671875 62.703125 7.8125 59.421875 
L 7.8125 69.390625 
Q 13.765625 71.78125 18.9375 73 
Q 24.125 74.21875 28.421875 74.21875 
Q 39.75 74.21875 46.484375 68.546875 
Q 53.21875 62.890625 53.21875 53.421875 
Q 53.21875 48.921875 51.53125 44.890625 
Q 49.859375 40.875 45.40625 35.40625 
Q 44.1875 33.984375 37.640625 27.21875 
Q 31.109375 20.453125 19.1875 8.296875 
z
" id="DejaVuSans-50"/>
       <path d="M 10.6875 12.40625 
L 21 12.40625 
L 21 0 
L 10.6875 0 
z
" id="DejaVuSans-46"/>
       <path d="M 10.796875 72.90625 
L 49.515625 72.90625 
L 49.515625 64.59375 
L 19.828125 64.59375 
L 19.828125 46.734375 
Q 21.96875 47.46875 24.109375 47.828125 
Q 26.265625 48.1875 28.421875 48.1875 
Q 40.625 48.1875 47.75 41.5 
Q 54.890625 34.8125 54.890625 23.390625 
Q 54.890625 11.625 47.5625 5.09375 
Q 40.234375 -1.421875 26.90625 -1.421875 
Q 22.3125 -1.421875 17.546875 -0.640625 
Q 12.796875 0.140625 7.71875 1.703125 
L 7.71875 11.625 
Q 12.109375 9.234375 16.796875 8.0625 
Q 21.484375 6.890625 26.703125 6.890625 
Q 35.15625 6.890625 40.078125 11.328125 
Q 45.015625 15.765625 45.015625 23.390625 
Q 45.015625 31 40.078125 35.4375 
Q 35.15625 39.890625 26.703125 39.890625 
Q 22.75 39.890625 18.8125 39.015625 
Q 14.890625 38.140625 10.796875 36.28125 
z
" id="DejaVuSans-53"/>
      </defs>
      <g transform="translate(90.751888 565.398438)scale(0.1 -0.1)">
       <use xlink:href="#DejaVuSans-8722"/>
       <use x="83.789062" xlink:href="#DejaVuSans-50"/>
       <use x="147.412109" xlink:href="#DejaVuSans-46"/>
       <use x="179.199219" xlink:href="#DejaVuSans-53"/>
      </g>
     </g>
    </g>
    <g id="xtick_2">
     <g id="line2d_2">
      <g>
       <use style="stroke:#000000;stroke-width:0.8;" x="170.952081" xlink:href="#mbe74d76efa" y="550.8"/>
      </g>
     </g>
     <g id="text_2">
      <!-- −2.0 -->
      <defs>
       <path d="M 31.78125 66.40625 
Q 24.171875 66.40625 20.328125 58.90625 
Q 16.5 51.421875 16.5 36.375 
Q 16.5 21.390625 20.328125 13.890625 
Q 24.171875 6.390625 31.78125 6.390625 
Q 39.453125 6.390625 43.28125 13.890625 
Q 47.125 21.390625 47.125 36.375 
Q 47.125 51.421875 43.28125 58.90625 
Q 39.453125 66.40625 31.78125 66.40625 
z
M 31.78125 74.21875 
Q 44.046875 74.21875 50.515625 64.515625 
Q 56.984375 54.828125 56.984375 36.375 
Q 56.984375 17.96875 50.515625 8.265625 
Q 44.046875 -1.421875 31.78125 -1.421875 
Q 19.53125 -1.421875 13.0625 8.265625 
Q 6.59375 17.96875 6.59375 36.375 
Q 6.59375 54.828125 13.0625 64.515625 
Q 19.53125 74.21875 31.78125 74.21875 
z
" id="DejaVuSans-48"/>
      </defs>
      <g transform="translate(158.810675 565.398438)scale(0.1 -0.1)">
       <use xlink:href="#DejaVuSans-8722"/>
       <use x="83.789062" xlink:href="#DejaVuSans-50"/>
       <use x="147.412109" xlink:href="#DejaVuSans-46"/>
       <use x="179.199219" xlink:href="#DejaVuSans-48"/>
      </g>
     </g>
    </g>
    <g id="xtick_3">
     <g id="line2d_3">
      <g>
       <use style="stroke:#000000;stroke-width:0.8;" x="239.010868" xlink:href="#mbe74d76efa" y="550.8"/>
      </g>
     </g>
     <g id="text_3">
      <!-- −1.5 -->
      <defs>
       <path d="M 12.40625 8.296875 
L 28.515625 8.296875 
L 28.515625 63.921875 
L 10.984375 60.40625 
L 10.984375 69.390625 
L 28.421875 72.90625 
L 38.28125 72.90625 
L 38.28125 8.296875 
L 54.390625 8.296875 
L 54.390625 0 
L 12.40625 0 
z
" id="DejaVuSans-49"/>
      </defs>
      <g transform="translate(226.869462 565.398438)scale(0.1 -0.1)">
       <use xlink:href="#DejaVuSans-8722"/>
       <use x="83.789062" xlink:href="#DejaVuSans-49"/>
       <use x="147.412109" xlink:href="#DejaVuSans-46"/>
       <use x="179.199219" xlink:href="#DejaVuSans-53"/>
      </g>
     </g>
    </g>
    <g id="xtick_4">
     <g id="line2d_4">
      <g>
       <use style="stroke:#000000;stroke-width:0.8;" x="307.069656" xlink:href="#mbe74d76efa" y="550.8"/>
      </g>
     </g>
     <g id="text_4">
      <!-- −1.0 -->
      <g transform="translate(294.928249 565.398438)scale(0.1 -0.1)">
       <use xlink:href="#DejaVuSans-8722"/>
       <use x="83.789062" xlink:href="#DejaVuSans-49"/>
       <use x="147.412109" xlink:href="#DejaVuSans-46"/>
       <use x="179.199219" xlink:href="#DejaVuSans-48"/>
      </g>
     </g>
    </g>
    <g id="xtick_5">
     <g id="line2d_5">
      <g>
       <use style="stroke:#000000;stroke-width:0.8;" x="375.128443" xlink:href="#mbe74d76efa" y="550.8"/>
      </g>
     </g>
     <g id="text_5">
      <!-- −0.5 -->
      <g transform="translate(362.987037 565.398438)scale(0.1 -0.1)">
       <use xlink:href="#DejaVuSans-8722"/>
       <use x="83.789062" xlink:href="#DejaVuSans-48"/>
       <use x="147.412109" xlink:href="#DejaVuSans-46"/>
       <use x="179.199219" xlink:href="#DejaVuSans-53"/>
      </g>
     </g>
    </g>
    <g id="xtick_6">
     <g id="line2d_6">
      <g>
       <use style="stroke:#000000;stroke-width:0.8;" x="443.18723" xlink:href="#mbe74d76efa" y="550.8"/>
      </g>
     </g>
     <g id="text_6">
      <!-- 0.0 -->
      <g transform="translate(435.235668 565.398438)scale(0.1 -0.1)">
       <use xlink:href="#DejaVuSans-48"/>
       <use x="63.623047" xlink:href="#DejaVuSans-46"/>
       <use x="95.410156" xlink:href="#DejaVuSans-48"/>
      </g>
     </g>
    </g>
    <g id="xtick_7">
     <g id="line2d_7">
      <g>
       <use style="stroke:#000000;stroke-width:0.8;" x="511.246017" xlink:href="#mbe74d76efa" y="550.8"/>
      </g>
     </g>
     <g id="text_7">
      <!-- 0.5 -->
      <g transform="translate(503.294455 565.398438)scale(0.1 -0.1)">
       <use xlink:href="#DejaVuSans-48"/>
       <use x="63.623047" xlink:href="#DejaVuSans-46"/>
       <use x="95.410156" xlink:href="#DejaVuSans-53"/>
      </g>
     </g>
    </g>
    <g id="xtick_8">
     <g id="line2d_8">
      <g>
       <use style="stroke:#000000;stroke-width:0.8;" x="579.304805" xlink:href="#mbe74d76efa" y="550.8"/>
      </g>
     </g>
     <g id="text_8">
      <!-- 1.0 -->
      <g transform="translate(571.353242 565.398438)scale(0.1 -0.1)">
       <use xlink:href="#DejaVuSans-49"/>
       <use x="63.623047" xlink:href="#DejaVuSans-46"/>
       <use x="95.410156" xlink:href="#DejaVuSans-48"/>
      </g>
     </g>
    </g>
   </g>
   <g id="matplotlib.axis_2">
    <g id="ytick_1">
     <g id="line2d_9">
      <defs>
       <path d="M 0 0 
L -3.5 0 
" id="m7ee171cbb0" style="stroke:#000000;stroke-width:0.8;"/>
      </defs>
      <g>
       <use style="stroke:#000000;stroke-width:0.8;" x="35.304688" xlink:href="#m7ee171cbb0" y="509.443157"/>
      </g>
     </g>
     <g id="text_9">
      <!-- −25 -->
      <g transform="translate(7.2 513.242376)scale(0.1 -0.1)">
       <use xlink:href="#DejaVuSans-8722"/>
       <use x="83.789062" xlink:href="#DejaVuSans-50"/>
       <use x="147.412109" xlink:href="#DejaVuSans-53"/>
      </g>
     </g>
    </g>
    <g id="ytick_2">
     <g id="line2d_10">
      <g>
       <use style="stroke:#000000;stroke-width:0.8;" x="35.304688" xlink:href="#m7ee171cbb0" y="448.057767"/>
      </g>
     </g>
     <g id="text_10">
      <!-- −20 -->
      <g transform="translate(7.2 451.856986)scale(0.1 -0.1)">
       <use xlink:href="#DejaVuSans-8722"/>
       <use x="83.789062" xlink:href="#DejaVuSans-50"/>
       <use x="147.412109" xlink:href="#DejaVuSans-48"/>
      </g>
     </g>
    </g>
    <g id="ytick_3">
     <g id="line2d_11">
      <g>
       <use style="stroke:#000000;stroke-width:0.8;" x="35.304688" xlink:href="#m7ee171cbb0" y="386.672377"/>
      </g>
     </g>
     <g id="text_11">
      <!-- −15 -->
      <g transform="translate(7.2 390.471596)scale(0.1 -0.1)">
       <use xlink:href="#DejaVuSans-8722"/>
       <use x="83.789062" xlink:href="#DejaVuSans-49"/>
       <use x="147.412109" xlink:href="#DejaVuSans-53"/>
      </g>
     </g>
    </g>
    <g id="ytick_4">
     <g id="line2d_12">
      <g>
       <use style="stroke:#000000;stroke-width:0.8;" x="35.304688" xlink:href="#m7ee171cbb0" y="325.286987"/>
      </g>
     </g>
     <g id="text_12">
      <!-- −10 -->
      <g transform="translate(7.2 329.086206)scale(0.1 -0.1)">
       <use xlink:href="#DejaVuSans-8722"/>
       <use x="83.789062" xlink:href="#DejaVuSans-49"/>
       <use x="147.412109" xlink:href="#DejaVuSans-48"/>
      </g>
     </g>
    </g>
    <g id="ytick_5">
     <g id="line2d_13">
      <g>
       <use style="stroke:#000000;stroke-width:0.8;" x="35.304688" xlink:href="#m7ee171cbb0" y="263.901597"/>
      </g>
     </g>
     <g id="text_13">
      <!-- −5 -->
      <g transform="translate(13.5625 267.700816)scale(0.1 -0.1)">
       <use xlink:href="#DejaVuSans-8722"/>
       <use x="83.789062" xlink:href="#DejaVuSans-53"/>
      </g>
     </g>
    </g>
    <g id="ytick_6">
     <g id="line2d_14">
      <g>
       <use style="stroke:#000000;stroke-width:0.8;" x="35.304688" xlink:href="#m7ee171cbb0" y="202.516207"/>
      </g>
     </g>
     <g id="text_14">
      <!-- 0 -->
      <g transform="translate(21.942187 206.315426)scale(0.1 -0.1)">
       <use xlink:href="#DejaVuSans-48"/>
      </g>
     </g>
    </g>
    <g id="ytick_7">
     <g id="line2d_15">
      <g>
       <use style="stroke:#000000;stroke-width:0.8;" x="35.304688" xlink:href="#m7ee171cbb0" y="141.130818"/>
      </g>
     </g>
     <g id="text_15">
      <!-- 5 -->
      <g transform="translate(21.942187 144.930036)scale(0.1 -0.1)">
       <use xlink:href="#DejaVuSans-53"/>
      </g>
     </g>
    </g>
    <g id="ytick_8">
     <g id="line2d_16">
      <g>
       <use style="stroke:#000000;stroke-width:0.8;" x="35.304688" xlink:href="#m7ee171cbb0" y="79.745428"/>
      </g>
     </g>
     <g id="text_16">
      <!-- 10 -->
      <g transform="translate(15.579687 83.544646)scale(0.1 -0.1)">
       <use xlink:href="#DejaVuSans-49"/>
       <use x="63.623047" xlink:href="#DejaVuSans-48"/>
      </g>
     </g>
    </g>
    <g id="ytick_9">
     <g id="line2d_17">
      <g>
       <use style="stroke:#000000;stroke-width:0.8;" x="35.304688" xlink:href="#m7ee171cbb0" y="18.360038"/>
      </g>
     </g>
     <g id="text_17">
      <!-- 15 -->
      <g transform="translate(15.579687 22.159257)scale(0.1 -0.1)">
       <use xlink:href="#DejaVuSans-49"/>
       <use x="63.623047" xlink:href="#DejaVuSans-53"/>
      </g>
     </g>
    </g>
   </g>
   <g id="line2d_18">
    <path clip-path="url(#p43ba04d9d8)" d="M 125.586963 476.152535 
L 126.035571 448.351119 
L 126.099163 424.805787 
L 125.970282 400.912235 
L 125.763484 376.216101 
L 125.482494 351.162352 
L 125.160081 326.840132 
L 124.859031 302.743242 
L 124.632133 279.784704 
L 123.279146 255.586793 
L 115.704622 230.623952 
L 99.926307 205.843333 
L 81.797237 181.294595 
L 69.049784 158.161557 
L 60.668324 133.517012 
L 64.127288 108.682636 
L 101.619279 86.987851 
L 174.957941 59.727584 
L 174.957941 59.727584 
L 174.957941 59.727584 
L 174.957941 59.727584 
L 174.957941 59.727584 
L 174.957941 59.727584 
L 174.957941 59.727584 
L 174.957941 59.727584 
" style="fill:none;stroke:#ff0000;stroke-linecap:square;stroke-width:1.5;"/>
    <defs>
     <path d="M 0 3 
C 0.795609 3 1.55874 2.683901 2.12132 2.12132 
C 2.683901 1.55874 3 0.795609 3 0 
C 3 -0.795609 2.683901 -1.55874 2.12132 -2.12132 
C 1.55874 -2.683901 0.795609 -3 0 -3 
C -0.795609 -3 -1.55874 -2.683901 -2.12132 -2.12132 
C -2.683901 -1.55874 -3 -0.795609 -3 0 
C -3 0.795609 -2.683901 1.55874 -2.12132 2.12132 
C -1.55874 2.683901 -0.795609 3 0 3 
z
" id="m842d2c270b" style="stroke:#ff0000;"/>
    </defs>
    <g clip-path="url(#p43ba04d9d8)">
     <use style="fill:#ff0000;stroke:#ff0000;" x="125.586963" xlink:href="#m842d2c270b" y="476.152535"/>
     <use style="fill:#ff0000;stroke:#ff0000;" x="126.035571" xlink:href="#m842d2c270b" y="448.351119"/>
     <use style="fill:#ff0000;stroke:#ff0000;" x="126.099163" xlink:href="#m842d2c270b" y="424.805787"/>
     <use style="fill:#ff0000;stroke:#ff0000;" x="125.970282" xlink:href="#m842d2c270b" y="400.912235"/>
     <use style="fill:#ff0000;stroke:#ff0000;" x="125.763484" xlink:href="#m842d2c270b" y="376.216101"/>
     <use style="fill:#ff0000;stroke:#ff0000;" x="125.482494" xlink:href="#m842d2c270b" y="351.162352"/>
     <use style="fill:#ff0000;stroke:#ff0000;" x="125.160081" xlink:href="#m842d2c270b" y="326.840132"/>
     <use style="fill:#ff0000;stroke:#ff0000;" x="124.859031" xlink:href="#m842d2c270b" y="302.743242"/>
     <use style="fill:#ff0000;stroke:#ff0000;" x="124.632133" xlink:href="#m842d2c270b" y="279.784704"/>
     <use style="fill:#ff0000;stroke:#ff0000;" x="123.279146" xlink:href="#m842d2c270b" y="255.586793"/>
     <use style="fill:#ff0000;stroke:#ff0000;" x="115.704622" xlink:href="#m842d2c270b" y="230.623952"/>
     <use style="fill:#ff0000;stroke:#ff0000;" x="99.926307" xlink:href="#m842d2c270b" y="205.843333"/>
     <use style="fill:#ff0000;stroke:#ff0000;" x="81.797237" xlink:href="#m842d2c270b" y="181.294595"/>
     <use style="fill:#ff0000;stroke:#ff0000;" x="69.049784" xlink:href="#m842d2c270b" y="158.161557"/>
     <use style="fill:#ff0000;stroke:#ff0000;" x="60.668324" xlink:href="#m842d2c270b" y="133.517012"/>
     <use style="fill:#ff0000;stroke:#ff0000;" x="64.127288" xlink:href="#m842d2c270b" y="108.682636"/>
     <use style="fill:#ff0000;stroke:#ff0000;" x="101.619279" xlink:href="#m842d2c270b" y="86.987851"/>
     <use style="fill:#ff0000;stroke:#ff0000;" x="174.957941" xlink:href="#m842d2c270b" y="59.727584"/>
     <use style="fill:#ff0000;stroke:#ff0000;" x="174.957941" xlink:href="#m842d2c270b" y="59.727584"/>
     <use style="fill:#ff0000;stroke:#ff0000;" x="174.957941" xlink:href="#m842d2c270b" y="59.727584"/>
     <use style="fill:#ff0000;stroke:#ff0000;" x="174.957941" xlink:href="#m842d2c270b" y="59.727584"/>
     <use style="fill:#ff0000;stroke:#ff0000;" x="174.957941" xlink:href="#m842d2c270b" y="59.727584"/>
     <use style="fill:#ff0000;stroke:#ff0000;" x="174.957941" xlink:href="#m842d2c270b" y="59.727584"/>
     <use style="fill:#ff0000;stroke:#ff0000;" x="174.957941" xlink:href="#m842d2c270b" y="59.727584"/>
     <use style="fill:#ff0000;stroke:#ff0000;" x="174.957941" xlink:href="#m842d2c270b" y="59.727584"/>
    </g>
   </g>
   <g id="line2d_19">
    <path clip-path="url(#p43ba04d9d8)" d="M 388.826366 467.258663 
L 295.085433 444.687658 
L 264.66289 420.54785 
L 270.421685 396.121306 
L 287.028139 371.714257 
L 287.945732 347.285422 
L 279.867956 322.875631 
L 277.030974 298.473673 
L 292.026826 274.071219 
L 321.376928 249.722081 
L 345.566773 225.381274 
L 364.837054 201.054168 
L 382.427813 176.740095 
L 400.970152 152.416903 
L 344.482323 128.054167 
L 288.192292 104.73178 
L 355.606366 80.062974 
L 545.966775 58.256752 
L 545.966775 58.256752 
L 545.966775 58.256752 
L 545.966775 58.256752 
L 545.966775 58.256752 
L 545.966775 58.256752 
L 545.966775 58.256752 
L 545.966775 58.256752 
" style="fill:none;stroke:#008000;stroke-linecap:square;stroke-width:1.5;"/>
    <defs>
     <path d="M 0 3 
C 0.795609 3 1.55874 2.683901 2.12132 2.12132 
C 2.683901 1.55874 3 0.795609 3 0 
C 3 -0.795609 2.683901 -1.55874 2.12132 -2.12132 
C 1.55874 -2.683901 0.795609 -3 0 -3 
C -0.795609 -3 -1.55874 -2.683901 -2.12132 -2.12132 
C -2.683901 -1.55874 -3 -0.795609 -3 0 
C -3 0.795609 -2.683901 1.55874 -2.12132 2.12132 
C -1.55874 2.683901 -0.795609 3 0 3 
z
" id="m2d788b92db" style="stroke:#008000;"/>
    </defs>
    <g clip-path="url(#p43ba04d9d8)">
     <use style="fill:#008000;stroke:#008000;" x="388.826366" xlink:href="#m2d788b92db" y="467.258663"/>
     <use style="fill:#008000;stroke:#008000;" x="295.085433" xlink:href="#m2d788b92db" y="444.687658"/>
     <use style="fill:#008000;stroke:#008000;" x="264.66289" xlink:href="#m2d788b92db" y="420.54785"/>
     <use style="fill:#008000;stroke:#008000;" x="270.421685" xlink:href="#m2d788b92db" y="396.121306"/>
     <use style="fill:#008000;stroke:#008000;" x="287.028139" xlink:href="#m2d788b92db" y="371.714257"/>
     <use style="fill:#008000;stroke:#008000;" x="287.945732" xlink:href="#m2d788b92db" y="347.285422"/>
     <use style="fill:#008000;stroke:#008000;" x="279.867956" xlink:href="#m2d788b92db" y="322.875631"/>
     <use style="fill:#008000;stroke:#008000;" x="277.030974" xlink:href="#m2d788b92db" y="298.473673"/>
     <use style="fill:#008000;stroke:#008000;" x="292.026826" xlink:href="#m2d788b92db" y="274.071219"/>
     <use style="fill:#008000;stroke:#008000;" x="321.376928" xlink:href="#m2d788b92db" y="249.722081"/>
     <use style="fill:#008000;stroke:#008000;" x="345.566773" xlink:href="#m2d788b92db" y="225.381274"/>
     <use style="fill:#008000;stroke:#008000;" x="364.837054" xlink:href="#m2d788b92db" y="201.054168"/>
     <use style="fill:#008000;stroke:#008000;" x="382.427813" xlink:href="#m2d788b92db" y="176.740095"/>
     <use style="fill:#008000;stroke:#008000;" x="400.970152" xlink:href="#m2d788b92db" y="152.416903"/>
     <use style="fill:#008000;stroke:#008000;" x="344.482323" xlink:href="#m2d788b92db" y="128.054167"/>
     <use style="fill:#008000;stroke:#008000;" x="288.192292" xlink:href="#m2d788b92db" y="104.73178"/>
     <use style="fill:#008000;stroke:#008000;" x="355.606366" xlink:href="#m2d788b92db" y="80.062974"/>
     <use style="fill:#008000;stroke:#008000;" x="545.966775" xlink:href="#m2d788b92db" y="58.256752"/>
     <use style="fill:#008000;stroke:#008000;" x="545.966775" xlink:href="#m2d788b92db" y="58.256752"/>
     <use style="fill:#008000;stroke:#008000;" x="545.966775" xlink:href="#m2d788b92db" y="58.256752"/>
     <use style="fill:#008000;stroke:#008000;" x="545.966775" xlink:href="#m2d788b92db" y="58.256752"/>
     <use style="fill:#008000;stroke:#008000;" x="545.966775" xlink:href="#m2d788b92db" y="58.256752"/>
     <use style="fill:#008000;stroke:#008000;" x="545.966775" xlink:href="#m2d788b92db" y="58.256752"/>
     <use style="fill:#008000;stroke:#008000;" x="545.966775" xlink:href="#m2d788b92db" y="58.256752"/>
     <use style="fill:#008000;stroke:#008000;" x="545.966775" xlink:href="#m2d788b92db" y="58.256752"/>
    </g>
   </g>
   <g id="line2d_20">
    <path clip-path="url(#p43ba04d9d8)" d="M 395.200153 467.184096 
L 307.833008 444.538524 
L 275.623925 420.516437 
L 280.420274 396.209908 
L 300.094343 371.935733 
L 301.687051 347.624629 
L 292.583342 323.334126 
L 285.837995 299.060429 
L 296.800267 274.782601 
L 322.254128 250.560312 
L 342.98206 226.342558 
L 359.360631 202.135774 
L 374.65532 177.943027 
L 390.384734 153.741141 
L 349.553597 129.55657 
L 281.801989 106.704596 
L 340.199269 81.304172 
L 532.144925 58.425937 
L 532.144925 58.425937 
L 532.144925 58.425937 
L 532.144925 58.425937 
L 532.144925 58.425937 
L 532.144925 58.425937 
L 532.144925 58.425937 
L 532.144925 58.425937 
" style="fill:none;stroke:#000000;stroke-linecap:square;stroke-width:1.5;"/>
    <defs>
     <path d="M 0 3 
C 0.795609 3 1.55874 2.683901 2.12132 2.12132 
C 2.683901 1.55874 3 0.795609 3 0 
C 3 -0.795609 2.683901 -1.55874 2.12132 -2.12132 
C 1.55874 -2.683901 0.795609 -3 0 -3 
C -0.795609 -3 -1.55874 -2.683901 -2.12132 -2.12132 
C -2.683901 -1.55874 -3 -0.795609 -3 0 
C -3 0.795609 -2.683901 1.55874 -2.12132 2.12132 
C -1.55874 2.683901 -0.795609 3 0 3 
z
" id="m9bbf34b13d" style="stroke:#000000;"/>
    </defs>
    <g clip-path="url(#p43ba04d9d8)">
     <use style="stroke:#000000;" x="395.200153" xlink:href="#m9bbf34b13d" y="467.184096"/>
     <use style="stroke:#000000;" x="307.833008" xlink:href="#m9bbf34b13d" y="444.538524"/>
     <use style="stroke:#000000;" x="275.623925" xlink:href="#m9bbf34b13d" y="420.516437"/>
     <use style="stroke:#000000;" x="280.420274" xlink:href="#m9bbf34b13d" y="396.209908"/>
     <use style="stroke:#000000;" x="300.094343" xlink:href="#m9bbf34b13d" y="371.935733"/>
     <use style="stroke:#000000;" x="301.687051" xlink:href="#m9bbf34b13d" y="347.624629"/>
     <use style="stroke:#000000;" x="292.583342" xlink:href="#m9bbf34b13d" y="323.334126"/>
     <use style="stroke:#000000;" x="285.837995" xlink:href="#m9bbf34b13d" y="299.060429"/>
     <use style="stroke:#000000;" x="296.800267" xlink:href="#m9bbf34b13d" y="274.782601"/>
     <use style="stroke:#000000;" x="322.254128" xlink:href="#m9bbf34b13d" y="250.560312"/>
     <use style="stroke:#000000;" x="342.98206" xlink:href="#m9bbf34b13d" y="226.342558"/>
     <use style="stroke:#000000;" x="359.360631" xlink:href="#m9bbf34b13d" y="202.135774"/>
     <use style="stroke:#000000;" x="374.65532" xlink:href="#m9bbf34b13d" y="177.943027"/>
     <use style="stroke:#000000;" x="390.384734" xlink:href="#m9bbf34b13d" y="153.741141"/>
     <use style="stroke:#000000;" x="349.553597" xlink:href="#m9bbf34b13d" y="129.55657"/>
     <use style="stroke:#000000;" x="281.801989" xlink:href="#m9bbf34b13d" y="106.704596"/>
     <use style="stroke:#000000;" x="340.199269" xlink:href="#m9bbf34b13d" y="81.304172"/>
     <use style="stroke:#000000;" x="532.144925" xlink:href="#m9bbf34b13d" y="58.425937"/>
     <use style="stroke:#000000;" x="532.144925" xlink:href="#m9bbf34b13d" y="58.425937"/>
     <use style="stroke:#000000;" x="532.144925" xlink:href="#m9bbf34b13d" y="58.425937"/>
     <use style="stroke:#000000;" x="532.144925" xlink:href="#m9bbf34b13d" y="58.425937"/>
     <use style="stroke:#000000;" x="532.144925" xlink:href="#m9bbf34b13d" y="58.425937"/>
     <use style="stroke:#000000;" x="532.144925" xlink:href="#m9bbf34b13d" y="58.425937"/>
     <use style="stroke:#000000;" x="532.144925" xlink:href="#m9bbf34b13d" y="58.425937"/>
     <use style="stroke:#000000;" x="532.144925" xlink:href="#m9bbf34b13d" y="58.425937"/>
    </g>
   </g>
   <g id="line2d_21">
    <path clip-path="url(#p43ba04d9d8)" d="M 567.708567 461.214904 
L 567.895494 438.77562 
L 567.941051 415.606616 
L 567.819 391.900101 
L 567.61661 367.560584 
L 567.314152 343.269031 
L 566.987143 318.670304 
L 566.70481 294.482478 
L 566.499154 269.149822 
L 565.280907 244.267081 
L 560.270908 220.028491 
L 544.250876 195.737935 
L 526.609887 171.240087 
L 509.970551 148.056786 
L 499.249389 125.075214 
L 505.503441 100.772603 
L 512.80654 68.874505 
L 566.677975 31.909091 
L 566.677975 31.909091 
L 566.677975 31.909091 
L 566.677975 31.909091 
L 566.677975 31.909091 
L 566.677975 31.909091 
L 566.677975 31.909091 
L 566.677975 31.909091 
" style="fill:none;stroke:#0000ff;stroke-linecap:square;stroke-width:1.5;"/>
    <defs>
     <path d="M 0 3 
C 0.795609 3 1.55874 2.683901 2.12132 2.12132 
C 2.683901 1.55874 3 0.795609 3 0 
C 3 -0.795609 2.683901 -1.55874 2.12132 -2.12132 
C 1.55874 -2.683901 0.795609 -3 0 -3 
C -0.795609 -3 -1.55874 -2.683901 -2.12132 -2.12132 
C -2.683901 -1.55874 -3 -0.795609 -3 0 
C -3 0.795609 -2.683901 1.55874 -2.12132 2.12132 
C -1.55874 2.683901 -0.795609 3 0 3 
z
" id="mbd8218e46b" style="stroke:#0000ff;"/>
    </defs>
    <g clip-path="url(#p43ba04d9d8)">
     <use style="fill:#0000ff;stroke:#0000ff;" x="567.708567" xlink:href="#mbd8218e46b" y="461.214904"/>
     <use style="fill:#0000ff;stroke:#0000ff;" x="567.895494" xlink:href="#mbd8218e46b" y="438.77562"/>
     <use style="fill:#0000ff;stroke:#0000ff;" x="567.941051" xlink:href="#mbd8218e46b" y="415.606616"/>
     <use style="fill:#0000ff;stroke:#0000ff;" x="567.819" xlink:href="#mbd8218e46b" y="391.900101"/>
     <use style="fill:#0000ff;stroke:#0000ff;" x="567.61661" xlink:href="#mbd8218e46b" y="367.560584"/>
     <use style="fill:#0000ff;stroke:#0000ff;" x="567.314152" xlink:href="#mbd8218e46b" y="343.269031"/>
     <use style="fill:#0000ff;stroke:#0000ff;" x="566.987143" xlink:href="#mbd8218e46b" y="318.670304"/>
     <use style="fill:#0000ff;stroke:#0000ff;" x="566.70481" xlink:href="#mbd8218e46b" y="294.482478"/>
     <use style="fill:#0000ff;stroke:#0000ff;" x="566.499154" xlink:href="#mbd8218e46b" y="269.149822"/>
     <use style="fill:#0000ff;stroke:#0000ff;" x="565.280907" xlink:href="#mbd8218e46b" y="244.267081"/>
     <use style="fill:#0000ff;stroke:#0000ff;" x="560.270908" xlink:href="#mbd8218e46b" y="220.028491"/>
     <use style="fill:#0000ff;stroke:#0000ff;" x="544.250876" xlink:href="#mbd8218e46b" y="195.737935"/>
     <use style="fill:#0000ff;stroke:#0000ff;" x="526.609887" xlink:href="#mbd8218e46b" y="171.240087"/>
     <use style="fill:#0000ff;stroke:#0000ff;" x="509.970551" xlink:href="#mbd8218e46b" y="148.056786"/>
     <use style="fill:#0000ff;stroke:#0000ff;" x="499.249389" xlink:href="#mbd8218e46b" y="125.075214"/>
     <use style="fill:#0000ff;stroke:#0000ff;" x="505.503441" xlink:href="#mbd8218e46b" y="100.772603"/>
     <use style="fill:#0000ff;stroke:#0000ff;" x="512.80654" xlink:href="#mbd8218e46b" y="68.874505"/>
     <use style="fill:#0000ff;stroke:#0000ff;" x="566.677975" xlink:href="#mbd8218e46b" y="31.909091"/>
     <use style="fill:#0000ff;stroke:#0000ff;" x="566.677975" xlink:href="#mbd8218e46b" y="31.909091"/>
     <use style="fill:#0000ff;stroke:#0000ff;" x="566.677975" xlink:href="#mbd8218e46b" y="31.909091"/>
     <use style="fill:#0000ff;stroke:#0000ff;" x="566.677975" xlink:href="#mbd8218e46b" y="31.909091"/>
     <use style="fill:#0000ff;stroke:#0000ff;" x="566.677975" xlink:href="#mbd8218e46b" y="31.909091"/>
     <use style="fill:#0000ff;stroke:#0000ff;" x="566.677975" xlink:href="#mbd8218e46b" y="31.909091"/>
     <use style="fill:#0000ff;stroke:#0000ff;" x="566.677975" xlink:href="#mbd8218e46b" y="31.909091"/>
     <use style="fill:#0000ff;stroke:#0000ff;" x="566.677975" xlink:href="#mbd8218e46b" y="31.909091"/>
    </g>
   </g>
   <g id="line2d_22">
    <defs>
     <path d="M 0 -9 
L -2.020626 -2.781153 
L -8.559509 -2.781153 
L -3.269441 1.062306 
L -5.290067 7.281153 
L -0 3.437694 
L 5.290067 7.281153 
L 3.269441 1.062306 
L 8.559509 -2.781153 
L 2.020626 -2.781153 
z
" id="m3095734b10" style="stroke:#a52a2a;stroke-linejoin:bevel;"/>
    </defs>
    <g clip-path="url(#p43ba04d9d8)">
     <use style="fill:#a52a2a;stroke:#a52a2a;stroke-linejoin:bevel;" x="480.211253" xlink:href="#m3095734b10" y="526.090909"/>
    </g>
   </g>
   <g id="patch_3">
    <path d="M 35.304688 550.8 
L 35.304688 7.2 
" style="fill:none;stroke:#000000;stroke-linecap:square;stroke-linejoin:miter;stroke-width:0.8;"/>
   </g>
   <g id="patch_4">
    <path d="M 593.304688 550.8 
L 593.304688 7.2 
" style="fill:none;stroke:#000000;stroke-linecap:square;stroke-linejoin:miter;stroke-width:0.8;"/>
   </g>
   <g id="patch_5">
    <path d="M 35.304688 550.8 
L 593.304688 550.8 
" style="fill:none;stroke:#000000;stroke-linecap:square;stroke-linejoin:miter;stroke-width:0.8;"/>
   </g>
   <g id="patch_6">
    <path d="M 35.304688 7.2 
L 593.304688 7.2 
" style="fill:none;stroke:#000000;stroke-linecap:square;stroke-linejoin:miter;stroke-width:0.8;"/>
   </g>
   <g id="legend_1">
    <g id="patch_7">
     <path d="M 42.304688 545.8 
L 133.695312 545.8 
Q 135.695312 545.8 135.695312 543.8 
L 135.695312 470.575 
Q 135.695312 468.575 133.695312 468.575 
L 42.304688 468.575 
Q 40.304688 468.575 40.304688 470.575 
L 40.304688 543.8 
Q 40.304688 545.8 42.304688 545.8 
z
" style="fill:#ffffff;opacity:0.8;stroke:#cccccc;stroke-linejoin:miter;"/>
    </g>
    <g id="line2d_23">
     <path d="M 44.304688 476.673438 
L 64.304688 476.673438 
" style="fill:none;stroke:#ff0000;stroke-linecap:square;stroke-width:1.5;"/>
    </g>
    <g id="line2d_24">
     <g>
      <use style="fill:#ff0000;stroke:#ff0000;" x="54.304688" xlink:href="#m842d2c270b" y="476.673438"/>
     </g>
    </g>
    <g id="text_18">
     <!-- Left bound -->
     <defs>
      <path d="M 9.8125 72.90625 
L 19.671875 72.90625 
L 19.671875 8.296875 
L 55.171875 8.296875 
L 55.171875 0 
L 9.8125 0 
z
" id="DejaVuSans-76"/>
      <path d="M 56.203125 29.59375 
L 56.203125 25.203125 
L 14.890625 25.203125 
Q 15.484375 15.921875 20.484375 11.0625 
Q 25.484375 6.203125 34.421875 6.203125 
Q 39.59375 6.203125 44.453125 7.46875 
Q 49.3125 8.734375 54.109375 11.28125 
L 54.109375 2.78125 
Q 49.265625 0.734375 44.1875 -0.34375 
Q 39.109375 -1.421875 33.890625 -1.421875 
Q 20.796875 -1.421875 13.15625 6.1875 
Q 5.515625 13.8125 5.515625 26.8125 
Q 5.515625 40.234375 12.765625 48.109375 
Q 20.015625 56 32.328125 56 
Q 43.359375 56 49.78125 48.890625 
Q 56.203125 41.796875 56.203125 29.59375 
z
M 47.21875 32.234375 
Q 47.125 39.59375 43.09375 43.984375 
Q 39.0625 48.390625 32.421875 48.390625 
Q 24.90625 48.390625 20.390625 44.140625 
Q 15.875 39.890625 15.1875 32.171875 
z
" id="DejaVuSans-101"/>
      <path d="M 37.109375 75.984375 
L 37.109375 68.5 
L 28.515625 68.5 
Q 23.6875 68.5 21.796875 66.546875 
Q 19.921875 64.59375 19.921875 59.515625 
L 19.921875 54.6875 
L 34.71875 54.6875 
L 34.71875 47.703125 
L 19.921875 47.703125 
L 19.921875 0 
L 10.890625 0 
L 10.890625 47.703125 
L 2.296875 47.703125 
L 2.296875 54.6875 
L 10.890625 54.6875 
L 10.890625 58.5 
Q 10.890625 67.625 15.140625 71.796875 
Q 19.390625 75.984375 28.609375 75.984375 
z
" id="DejaVuSans-102"/>
      <path d="M 18.3125 70.21875 
L 18.3125 54.6875 
L 36.8125 54.6875 
L 36.8125 47.703125 
L 18.3125 47.703125 
L 18.3125 18.015625 
Q 18.3125 11.328125 20.140625 9.421875 
Q 21.96875 7.515625 27.59375 7.515625 
L 36.8125 7.515625 
L 36.8125 0 
L 27.59375 0 
Q 17.1875 0 13.234375 3.875 
Q 9.28125 7.765625 9.28125 18.015625 
L 9.28125 47.703125 
L 2.6875 47.703125 
L 2.6875 54.6875 
L 9.28125 54.6875 
L 9.28125 70.21875 
z
" id="DejaVuSans-116"/>
      <path id="DejaVuSans-32"/>
      <path d="M 48.6875 27.296875 
Q 48.6875 37.203125 44.609375 42.84375 
Q 40.53125 48.484375 33.40625 48.484375 
Q 26.265625 48.484375 22.1875 42.84375 
Q 18.109375 37.203125 18.109375 27.296875 
Q 18.109375 17.390625 22.1875 11.75 
Q 26.265625 6.109375 33.40625 6.109375 
Q 40.53125 6.109375 44.609375 11.75 
Q 48.6875 17.390625 48.6875 27.296875 
z
M 18.109375 46.390625 
Q 20.953125 51.265625 25.265625 53.625 
Q 29.59375 56 35.59375 56 
Q 45.5625 56 51.78125 48.09375 
Q 58.015625 40.1875 58.015625 27.296875 
Q 58.015625 14.40625 51.78125 6.484375 
Q 45.5625 -1.421875 35.59375 -1.421875 
Q 29.59375 -1.421875 25.265625 0.953125 
Q 20.953125 3.328125 18.109375 8.203125 
L 18.109375 0 
L 9.078125 0 
L 9.078125 75.984375 
L 18.109375 75.984375 
z
" id="DejaVuSans-98"/>
      <path d="M 30.609375 48.390625 
Q 23.390625 48.390625 19.1875 42.75 
Q 14.984375 37.109375 14.984375 27.296875 
Q 14.984375 17.484375 19.15625 11.84375 
Q 23.34375 6.203125 30.609375 6.203125 
Q 37.796875 6.203125 41.984375 11.859375 
Q 46.1875 17.53125 46.1875 27.296875 
Q 46.1875 37.015625 41.984375 42.703125 
Q 37.796875 48.390625 30.609375 48.390625 
z
M 30.609375 56 
Q 42.328125 56 49.015625 48.375 
Q 55.71875 40.765625 55.71875 27.296875 
Q 55.71875 13.875 49.015625 6.21875 
Q 42.328125 -1.421875 30.609375 -1.421875 
Q 18.84375 -1.421875 12.171875 6.21875 
Q 5.515625 13.875 5.515625 27.296875 
Q 5.515625 40.765625 12.171875 48.375 
Q 18.84375 56 30.609375 56 
z
" id="DejaVuSans-111"/>
      <path d="M 8.5 21.578125 
L 8.5 54.6875 
L 17.484375 54.6875 
L 17.484375 21.921875 
Q 17.484375 14.15625 20.5 10.265625 
Q 23.53125 6.390625 29.59375 6.390625 
Q 36.859375 6.390625 41.078125 11.03125 
Q 45.3125 15.671875 45.3125 23.6875 
L 45.3125 54.6875 
L 54.296875 54.6875 
L 54.296875 0 
L 45.3125 0 
L 45.3125 8.40625 
Q 42.046875 3.421875 37.71875 1 
Q 33.40625 -1.421875 27.6875 -1.421875 
Q 18.265625 -1.421875 13.375 4.4375 
Q 8.5 10.296875 8.5 21.578125 
z
M 31.109375 56 
z
" id="DejaVuSans-117"/>
      <path d="M 54.890625 33.015625 
L 54.890625 0 
L 45.90625 0 
L 45.90625 32.71875 
Q 45.90625 40.484375 42.875 44.328125 
Q 39.84375 48.1875 33.796875 48.1875 
Q 26.515625 48.1875 22.3125 43.546875 
Q 18.109375 38.921875 18.109375 30.90625 
L 18.109375 0 
L 9.078125 0 
L 9.078125 54.6875 
L 18.109375 54.6875 
L 18.109375 46.1875 
Q 21.34375 51.125 25.703125 53.5625 
Q 30.078125 56 35.796875 56 
Q 45.21875 56 50.046875 50.171875 
Q 54.890625 44.34375 54.890625 33.015625 
z
" id="DejaVuSans-110"/>
      <path d="M 45.40625 46.390625 
L 45.40625 75.984375 
L 54.390625 75.984375 
L 54.390625 0 
L 45.40625 0 
L 45.40625 8.203125 
Q 42.578125 3.328125 38.25 0.953125 
Q 33.9375 -1.421875 27.875 -1.421875 
Q 17.96875 -1.421875 11.734375 6.484375 
Q 5.515625 14.40625 5.515625 27.296875 
Q 5.515625 40.1875 11.734375 48.09375 
Q 17.96875 56 27.875 56 
Q 33.9375 56 38.25 53.625 
Q 42.578125 51.265625 45.40625 46.390625 
z
M 14.796875 27.296875 
Q 14.796875 17.390625 18.875 11.75 
Q 22.953125 6.109375 30.078125 6.109375 
Q 37.203125 6.109375 41.296875 11.75 
Q 45.40625 17.390625 45.40625 27.296875 
Q 45.40625 37.203125 41.296875 42.84375 
Q 37.203125 48.484375 30.078125 48.484375 
Q 22.953125 48.484375 18.875 42.84375 
Q 14.796875 37.203125 14.796875 27.296875 
z
" id="DejaVuSans-100"/>
     </defs>
     <g transform="translate(72.304688 480.173438)scale(0.1 -0.1)">
      <use xlink:href="#DejaVuSans-76"/>
      <use x="53.962891" xlink:href="#DejaVuSans-101"/>
      <use x="115.486328" xlink:href="#DejaVuSans-102"/>
      <use x="148.941406" xlink:href="#DejaVuSans-116"/>
      <use x="188.150391" xlink:href="#DejaVuSans-32"/>
      <use x="219.9375" xlink:href="#DejaVuSans-98"/>
      <use x="283.414062" xlink:href="#DejaVuSans-111"/>
      <use x="344.595703" xlink:href="#DejaVuSans-117"/>
      <use x="407.974609" xlink:href="#DejaVuSans-110"/>
      <use x="471.353516" xlink:href="#DejaVuSans-100"/>
     </g>
    </g>
    <g id="line2d_25">
     <path d="M 44.304688 491.351562 
L 64.304688 491.351562 
" style="fill:none;stroke:#008000;stroke-linecap:square;stroke-width:1.5;"/>
    </g>
    <g id="line2d_26">
     <g>
      <use style="fill:#008000;stroke:#008000;" x="54.304688" xlink:href="#m2d788b92db" y="491.351562"/>
     </g>
    </g>
    <g id="text_19">
     <!-- gt_init_path -->
     <defs>
      <path d="M 45.40625 27.984375 
Q 45.40625 37.75 41.375 43.109375 
Q 37.359375 48.484375 30.078125 48.484375 
Q 22.859375 48.484375 18.828125 43.109375 
Q 14.796875 37.75 14.796875 27.984375 
Q 14.796875 18.265625 18.828125 12.890625 
Q 22.859375 7.515625 30.078125 7.515625 
Q 37.359375 7.515625 41.375 12.890625 
Q 45.40625 18.265625 45.40625 27.984375 
z
M 54.390625 6.78125 
Q 54.390625 -7.171875 48.1875 -13.984375 
Q 42 -20.796875 29.203125 -20.796875 
Q 24.46875 -20.796875 20.265625 -20.09375 
Q 16.0625 -19.390625 12.109375 -17.921875 
L 12.109375 -9.1875 
Q 16.0625 -11.328125 19.921875 -12.34375 
Q 23.78125 -13.375 27.78125 -13.375 
Q 36.625 -13.375 41.015625 -8.765625 
Q 45.40625 -4.15625 45.40625 5.171875 
L 45.40625 9.625 
Q 42.625 4.78125 38.28125 2.390625 
Q 33.9375 0 27.875 0 
Q 17.828125 0 11.671875 7.65625 
Q 5.515625 15.328125 5.515625 27.984375 
Q 5.515625 40.671875 11.671875 48.328125 
Q 17.828125 56 27.875 56 
Q 33.9375 56 38.28125 53.609375 
Q 42.625 51.21875 45.40625 46.390625 
L 45.40625 54.6875 
L 54.390625 54.6875 
z
" id="DejaVuSans-103"/>
      <path d="M 50.984375 -16.609375 
L 50.984375 -23.578125 
L -0.984375 -23.578125 
L -0.984375 -16.609375 
z
" id="DejaVuSans-95"/>
      <path d="M 9.421875 54.6875 
L 18.40625 54.6875 
L 18.40625 0 
L 9.421875 0 
z
M 9.421875 75.984375 
L 18.40625 75.984375 
L 18.40625 64.59375 
L 9.421875 64.59375 
z
" id="DejaVuSans-105"/>
      <path d="M 18.109375 8.203125 
L 18.109375 -20.796875 
L 9.078125 -20.796875 
L 9.078125 54.6875 
L 18.109375 54.6875 
L 18.109375 46.390625 
Q 20.953125 51.265625 25.265625 53.625 
Q 29.59375 56 35.59375 56 
Q 45.5625 56 51.78125 48.09375 
Q 58.015625 40.1875 58.015625 27.296875 
Q 58.015625 14.40625 51.78125 6.484375 
Q 45.5625 -1.421875 35.59375 -1.421875 
Q 29.59375 -1.421875 25.265625 0.953125 
Q 20.953125 3.328125 18.109375 8.203125 
z
M 48.6875 27.296875 
Q 48.6875 37.203125 44.609375 42.84375 
Q 40.53125 48.484375 33.40625 48.484375 
Q 26.265625 48.484375 22.1875 42.84375 
Q 18.109375 37.203125 18.109375 27.296875 
Q 18.109375 17.390625 22.1875 11.75 
Q 26.265625 6.109375 33.40625 6.109375 
Q 40.53125 6.109375 44.609375 11.75 
Q 48.6875 17.390625 48.6875 27.296875 
z
" id="DejaVuSans-112"/>
      <path d="M 34.28125 27.484375 
Q 23.390625 27.484375 19.1875 25 
Q 14.984375 22.515625 14.984375 16.5 
Q 14.984375 11.71875 18.140625 8.90625 
Q 21.296875 6.109375 26.703125 6.109375 
Q 34.1875 6.109375 38.703125 11.40625 
Q 43.21875 16.703125 43.21875 25.484375 
L 43.21875 27.484375 
z
M 52.203125 31.203125 
L 52.203125 0 
L 43.21875 0 
L 43.21875 8.296875 
Q 40.140625 3.328125 35.546875 0.953125 
Q 30.953125 -1.421875 24.3125 -1.421875 
Q 15.921875 -1.421875 10.953125 3.296875 
Q 6 8.015625 6 15.921875 
Q 6 25.140625 12.171875 29.828125 
Q 18.359375 34.515625 30.609375 34.515625 
L 43.21875 34.515625 
L 43.21875 35.40625 
Q 43.21875 41.609375 39.140625 45 
Q 35.0625 48.390625 27.6875 48.390625 
Q 23 48.390625 18.546875 47.265625 
Q 14.109375 46.140625 10.015625 43.890625 
L 10.015625 52.203125 
Q 14.9375 54.109375 19.578125 55.046875 
Q 24.21875 56 28.609375 56 
Q 40.484375 56 46.34375 49.84375 
Q 52.203125 43.703125 52.203125 31.203125 
z
" id="DejaVuSans-97"/>
      <path d="M 54.890625 33.015625 
L 54.890625 0 
L 45.90625 0 
L 45.90625 32.71875 
Q 45.90625 40.484375 42.875 44.328125 
Q 39.84375 48.1875 33.796875 48.1875 
Q 26.515625 48.1875 22.3125 43.546875 
Q 18.109375 38.921875 18.109375 30.90625 
L 18.109375 0 
L 9.078125 0 
L 9.078125 75.984375 
L 18.109375 75.984375 
L 18.109375 46.1875 
Q 21.34375 51.125 25.703125 53.5625 
Q 30.078125 56 35.796875 56 
Q 45.21875 56 50.046875 50.171875 
Q 54.890625 44.34375 54.890625 33.015625 
z
" id="DejaVuSans-104"/>
     </defs>
     <g transform="translate(72.304688 494.851562)scale(0.1 -0.1)">
      <use xlink:href="#DejaVuSans-103"/>
      <use x="63.476562" xlink:href="#DejaVuSans-116"/>
      <use x="102.685547" xlink:href="#DejaVuSans-95"/>
      <use x="152.685547" xlink:href="#DejaVuSans-105"/>
      <use x="180.46875" xlink:href="#DejaVuSans-110"/>
      <use x="243.847656" xlink:href="#DejaVuSans-105"/>
      <use x="271.630859" xlink:href="#DejaVuSans-116"/>
      <use x="310.839844" xlink:href="#DejaVuSans-95"/>
      <use x="360.839844" xlink:href="#DejaVuSans-112"/>
      <use x="424.316406" xlink:href="#DejaVuSans-97"/>
      <use x="485.595703" xlink:href="#DejaVuSans-116"/>
      <use x="524.804688" xlink:href="#DejaVuSans-104"/>
     </g>
    </g>
    <g id="line2d_27">
     <path d="M 44.304688 506.307813 
L 64.304688 506.307813 
" style="fill:none;stroke:#000000;stroke-linecap:square;stroke-width:1.5;"/>
    </g>
    <g id="line2d_28">
     <g>
      <use style="stroke:#000000;" x="54.304688" xlink:href="#m9bbf34b13d" y="506.307813"/>
     </g>
    </g>
    <g id="text_20">
     <!-- gt_opt_path -->
     <g transform="translate(72.304688 509.807813)scale(0.1 -0.1)">
      <use xlink:href="#DejaVuSans-103"/>
      <use x="63.476562" xlink:href="#DejaVuSans-116"/>
      <use x="102.685547" xlink:href="#DejaVuSans-95"/>
      <use x="152.685547" xlink:href="#DejaVuSans-111"/>
      <use x="213.867188" xlink:href="#DejaVuSans-112"/>
      <use x="277.34375" xlink:href="#DejaVuSans-116"/>
      <use x="316.552734" xlink:href="#DejaVuSans-95"/>
      <use x="366.552734" xlink:href="#DejaVuSans-112"/>
      <use x="430.029297" xlink:href="#DejaVuSans-97"/>
      <use x="491.308594" xlink:href="#DejaVuSans-116"/>
      <use x="530.517578" xlink:href="#DejaVuSans-104"/>
     </g>
    </g>
    <g id="line2d_29">
     <path d="M 44.304688 521.264063 
L 64.304688 521.264063 
" style="fill:none;stroke:#0000ff;stroke-linecap:square;stroke-width:1.5;"/>
    </g>
    <g id="line2d_30">
     <g>
      <use style="fill:#0000ff;stroke:#0000ff;" x="54.304688" xlink:href="#mbd8218e46b" y="521.264063"/>
     </g>
    </g>
    <g id="text_21">
     <!-- right bound -->
     <defs>
      <path d="M 41.109375 46.296875 
Q 39.59375 47.171875 37.8125 47.578125 
Q 36.03125 48 33.890625 48 
Q 26.265625 48 22.1875 43.046875 
Q 18.109375 38.09375 18.109375 28.8125 
L 18.109375 0 
L 9.078125 0 
L 9.078125 54.6875 
L 18.109375 54.6875 
L 18.109375 46.1875 
Q 20.953125 51.171875 25.484375 53.578125 
Q 30.03125 56 36.53125 56 
Q 37.453125 56 38.578125 55.875 
Q 39.703125 55.765625 41.0625 55.515625 
z
" id="DejaVuSans-114"/>
     </defs>
     <g transform="translate(72.304688 524.764063)scale(0.1 -0.1)">
      <use xlink:href="#DejaVuSans-114"/>
      <use x="41.113281" xlink:href="#DejaVuSans-105"/>
      <use x="68.896484" xlink:href="#DejaVuSans-103"/>
      <use x="132.373047" xlink:href="#DejaVuSans-104"/>
      <use x="195.751953" xlink:href="#DejaVuSans-116"/>
      <use x="234.960938" xlink:href="#DejaVuSans-32"/>
      <use x="266.748047" xlink:href="#DejaVuSans-98"/>
      <use x="330.224609" xlink:href="#DejaVuSans-111"/>
      <use x="391.40625" xlink:href="#DejaVuSans-117"/>
      <use x="454.785156" xlink:href="#DejaVuSans-110"/>
      <use x="518.164062" xlink:href="#DejaVuSans-100"/>
     </g>
    </g>
    <g id="line2d_31"/>
    <g id="line2d_32">
     <g>
      <use style="fill:#a52a2a;stroke:#a52a2a;stroke-linejoin:bevel;" x="54.304688" xlink:href="#m3095734b10" y="535.942188"/>
     </g>
    </g>
    <g id="text_22">
     <!-- car_centre -->
     <defs>
      <path d="M 48.78125 52.59375 
L 48.78125 44.1875 
Q 44.96875 46.296875 41.140625 47.34375 
Q 37.3125 48.390625 33.40625 48.390625 
Q 24.65625 48.390625 19.8125 42.84375 
Q 14.984375 37.3125 14.984375 27.296875 
Q 14.984375 17.28125 19.8125 11.734375 
Q 24.65625 6.203125 33.40625 6.203125 
Q 37.3125 6.203125 41.140625 7.25 
Q 44.96875 8.296875 48.78125 10.40625 
L 48.78125 2.09375 
Q 45.015625 0.34375 40.984375 -0.53125 
Q 36.96875 -1.421875 32.421875 -1.421875 
Q 20.0625 -1.421875 12.78125 6.34375 
Q 5.515625 14.109375 5.515625 27.296875 
Q 5.515625 40.671875 12.859375 48.328125 
Q 20.21875 56 33.015625 56 
Q 37.15625 56 41.109375 55.140625 
Q 45.0625 54.296875 48.78125 52.59375 
z
" id="DejaVuSans-99"/>
     </defs>
     <g transform="translate(72.304688 539.442188)scale(0.1 -0.1)">
      <use xlink:href="#DejaVuSans-99"/>
      <use x="54.980469" xlink:href="#DejaVuSans-97"/>
      <use x="116.259766" xlink:href="#DejaVuSans-114"/>
      <use x="157.373047" xlink:href="#DejaVuSans-95"/>
      <use x="207.373047" xlink:href="#DejaVuSans-99"/>
      <use x="262.353516" xlink:href="#DejaVuSans-101"/>
      <use x="323.876953" xlink:href="#DejaVuSans-110"/>
      <use x="387.255859" xlink:href="#DejaVuSans-116"/>
      <use x="426.464844" xlink:href="#DejaVuSans-114"/>
      <use x="465.328125" xlink:href="#DejaVuSans-101"/>
     </g>
    </g>
   </g>
  </g>
 </g>
 <defs>
  <clipPath id="p43ba04d9d8">
   <rect height="543.6" width="558" x="35.304688" y="7.2"/>
  </clipPath>
 </defs>
</svg>
